<svg width="396" height="183" viewBox="0 0 396 183" fill="none" xmlns="http://www.w3.org/2000/svg">
<rect width="396" height="183" rx="9" fill="white"/>
<path d="M18 69H189" stroke="#D8D8D8" stroke-width="0.8" stroke-miterlimit="10"/>
<path d="M207 69H378" stroke="#D8D8D8" stroke-width="0.77" stroke-miterlimit="10"/>
<path d="M18 127H189" stroke="#D8D8D8" stroke-width="0.8" stroke-miterlimit="10"/>
<path d="M207 127H378" stroke="#D8D8D8" stroke-width="0.77" stroke-miterlimit="10"/>
<path d="M19.974 138.971V132.282H18.903V139.895H23.9955V138.971H19.974ZM25.3438 137.385H29.6908C29.8168 135.6 28.7773 134.151 27.0553 134.151C25.5118 134.151 24.3148 135.296 24.3148 137.081C24.3148 138.75 25.3018 140.031 27.0868 140.031C28.4623 140.031 29.3548 139.233 29.6173 138.257H28.6303C28.3888 138.813 27.9268 139.191 27.0868 139.191C26.2468 139.191 25.3858 138.603 25.3438 137.385ZM25.3543 136.566C25.4383 135.432 26.2048 134.97 27.0553 134.97C28.0633 134.97 28.6618 135.768 28.6828 136.566H25.3543ZM30.4171 138.404C30.4171 139.443 31.2991 140.031 32.3596 140.031C33.3571 140.031 33.9451 139.695 34.2916 139.118C34.3021 139.454 34.3336 139.685 34.3651 139.895H35.3311C35.2261 139.359 35.1736 138.708 35.1841 137.763L35.1946 136.461C35.2051 134.876 34.5016 134.13 32.9476 134.13C31.8451 134.13 30.7741 134.813 30.6796 136.031H31.6666C31.7086 135.338 32.1706 134.907 32.9581 134.907C33.6616 134.907 34.2391 135.254 34.2391 136.283V136.419C31.9186 136.682 30.4171 137.07 30.4171 138.404ZM34.3126 137.175V137.532C34.3126 138.866 33.4621 139.275 32.5696 139.275C31.8871 139.275 31.4776 138.918 31.4776 138.383C31.4776 137.606 32.5801 137.354 34.3126 137.175ZM40.4928 132.282V135.138C40.1463 134.54 39.5478 134.151 38.6448 134.151C37.3533 134.151 36.2298 135.233 36.2298 137.091C36.2298 138.96 37.3533 140.031 38.6448 140.031C39.5478 140.031 40.1463 139.643 40.4928 139.044V139.895H41.4483V132.282H40.4928ZM38.8863 134.97C39.7368 134.97 40.5348 135.6 40.5348 137.091C40.5348 138.582 39.7368 139.212 38.8863 139.212C37.9098 139.212 37.2693 138.435 37.2693 137.091C37.2693 135.747 37.9098 134.97 38.8863 134.97ZM46.1892 135.894H47.1867C47.0082 134.823 46.1787 134.141 44.9607 134.141C43.7112 134.141 42.7032 134.718 42.7032 135.716C42.7032 136.766 43.5432 137.123 44.3097 137.28L45.1497 137.448C45.7587 137.574 46.2942 137.816 46.2942 138.383C46.2942 138.908 45.7062 139.223 44.9817 139.223C44.1417 139.223 43.6902 138.792 43.5432 138.068H42.5352C42.6402 139.055 43.4802 140.031 44.9607 140.031C46.2522 140.031 47.2602 139.391 47.2602 138.278C47.2602 137.186 46.3572 136.797 45.3282 136.598L44.5302 136.44C43.9842 136.335 43.6692 136.125 43.6692 135.674C43.6692 135.159 44.2992 134.96 44.8557 134.96C45.5172 134.96 46.0422 135.222 46.1892 135.894ZM55.6675 136.136C55.5415 135.18 54.67 134.151 53.305 134.151C51.6355 134.151 50.575 135.401 50.575 137.081C50.575 138.803 51.5935 140.031 53.2105 140.031C54.523 140.031 55.5415 139.118 55.7305 138.057H54.7435C54.607 138.656 54.04 139.191 53.242 139.191C52.402 139.191 51.6145 138.509 51.6145 137.07C51.6145 135.653 52.3915 134.991 53.242 134.991C53.977 134.991 54.565 135.464 54.7015 136.136H55.6675ZM61.91 137.091C61.91 135.044 60.5135 134.151 59.201 134.151C57.8885 134.151 56.492 135.044 56.492 137.091C56.492 139.139 57.8885 140.031 59.201 140.031C60.5135 140.031 61.91 139.139 61.91 137.091ZM59.201 139.191C58.34 139.191 57.5105 138.593 57.5105 137.091C57.5105 135.548 58.34 134.991 59.201 134.991C60.062 134.991 60.8915 135.59 60.8915 137.091C60.8915 138.54 60.062 139.191 59.201 139.191ZM64.0084 135.096V134.246H63.0529V139.895H64.0084V136.829C64.0084 135.621 64.5754 134.981 65.4994 134.981C66.5914 134.981 66.7384 135.737 66.7384 136.608V139.895H67.6939V136.325C67.6939 135.033 67.2004 134.151 65.8354 134.151C64.8799 134.151 64.3339 134.561 64.0084 135.096ZM69.3962 132.828V134.246H68.5037V135.012H69.3962V138.477C69.3962 139.653 69.6482 139.895 70.7297 139.895H71.4227V139.097H70.9397C70.3937 139.097 70.3517 138.95 70.3517 138.362V135.012H71.4227V134.246H70.3517V132.828H69.3962ZM72.2017 138.404C72.2017 139.443 73.0837 140.031 74.1442 140.031C75.1417 140.031 75.7297 139.695 76.0762 139.118C76.0867 139.454 76.1182 139.685 76.1497 139.895H77.1157C77.0107 139.359 76.9582 138.708 76.9687 137.763L76.9792 136.461C76.9897 134.876 76.2862 134.13 74.7322 134.13C73.6297 134.13 72.5587 134.813 72.4642 136.031H73.4512C73.4932 135.338 73.9552 134.907 74.7427 134.907C75.4462 134.907 76.0237 135.254 76.0237 136.283V136.419C73.7032 136.682 72.2017 137.07 72.2017 138.404ZM76.0972 137.175V137.532C76.0972 138.866 75.2467 139.275 74.3542 139.275C73.6717 139.275 73.2622 138.918 73.2622 138.383C73.2622 137.606 74.3647 137.354 76.0972 137.175ZM83.107 136.136C82.981 135.18 82.1095 134.151 80.7445 134.151C79.075 134.151 78.0145 135.401 78.0145 137.081C78.0145 138.803 79.033 140.031 80.65 140.031C81.9625 140.031 82.981 139.118 83.17 138.057H82.183C82.0465 138.656 81.4795 139.191 80.6815 139.191C79.8415 139.191 79.054 138.509 79.054 137.07C79.054 135.653 79.831 134.991 80.6815 134.991C81.4165 134.991 82.0045 135.464 82.141 136.136H83.107ZM84.5207 132.828V134.246H83.6282V135.012H84.5207V138.477C84.5207 139.653 84.7727 139.895 85.8542 139.895H86.5472V139.097H86.0642C85.5182 139.097 85.4762 138.95 85.4762 138.362V135.012H86.5472V134.246H85.4762V132.828H84.5207ZM88.2515 137.385H92.5985C92.7245 135.6 91.685 134.151 89.963 134.151C88.4195 134.151 87.2225 135.296 87.2225 137.081C87.2225 138.75 88.2095 140.031 89.9945 140.031C91.37 140.031 92.2625 139.233 92.525 138.257H91.538C91.2965 138.813 90.8345 139.191 89.9945 139.191C89.1545 139.191 88.2935 138.603 88.2515 137.385ZM88.262 136.566C88.346 135.432 89.1125 134.97 89.963 134.97C90.971 134.97 91.5695 135.768 91.5905 136.566H88.262ZM97.6378 132.282V135.138C97.2913 134.54 96.6928 134.151 95.7898 134.151C94.4983 134.151 93.3748 135.233 93.3748 137.091C93.3748 138.96 94.4983 140.031 95.7898 140.031C96.6928 140.031 97.2913 139.643 97.6378 139.044V139.895H98.5933V132.282H97.6378ZM96.0313 134.97C96.8818 134.97 97.6798 135.6 97.6798 137.091C97.6798 138.582 96.8818 139.212 96.0313 139.212C95.0548 139.212 94.4143 138.435 94.4143 137.091C94.4143 135.747 95.0548 134.97 96.0313 134.97Z" fill="#808084"/>
<path d="M28.68 153.975C28.68 151.515 26.64 150.135 23.96 150.135C20.78 150.135 18.74 152.115 18.78 155.035H21.16C21.16 152.775 22.48 151.955 23.86 151.955C25.28 151.955 26.2 152.775 26.2 154.175C26.2 156.595 23.3 159.155 18.46 162.935V164.895H29.02V162.815H21.42C25.8 159.775 28.68 156.975 28.68 153.975ZM38.2839 160.815C38.2839 162.395 37.0239 163.315 35.3439 163.315C33.4439 163.315 32.5039 161.995 32.2639 160.395H29.9439C30.1239 162.955 31.9439 165.155 35.3039 165.155C38.2039 165.155 40.7439 163.715 40.7439 160.755C40.7439 159.275 39.9839 157.855 38.2439 157.215C39.5239 156.595 40.3639 155.395 40.3639 153.955C40.3639 151.235 37.9639 150.135 35.5439 150.135C32.3239 150.135 30.3439 151.955 30.1239 154.715H32.4439C32.6639 153.015 33.6439 151.955 35.4039 151.955C36.7439 151.955 37.9239 152.635 37.9239 154.095C37.9239 155.595 36.8239 156.335 34.5639 156.335H33.9639V158.315H34.6639C36.8039 158.315 38.2839 158.955 38.2839 160.815Z" fill="#333333"/>
<path d="M215.78 160.92C215.78 162.5 214.52 163.42 212.84 163.42C210.94 163.42 210 162.1 209.76 160.5H207.44C207.62 163.06 209.44 165.26 212.8 165.26C215.7 165.26 218.24 163.82 218.24 160.86C218.24 159.38 217.48 157.96 215.74 157.32C217.02 156.7 217.86 155.5 217.86 154.06C217.86 151.34 215.46 150.24 213.04 150.24C209.82 150.24 207.84 152.06 207.62 154.82H209.94C210.16 153.12 211.14 152.06 212.9 152.06C214.24 152.06 215.42 152.74 215.42 154.2C215.42 155.7 214.32 156.44 212.06 156.44H211.46V158.42H212.16C214.3 158.42 215.78 159.06 215.78 160.92ZM230.292 153.96C230.292 151.8 228.352 150.24 225.332 150.24C222.292 150.24 220.372 151.8 220.372 153.96C220.372 155.2 220.952 156.54 222.232 157.26C220.512 158.12 219.932 159.52 219.932 160.88C219.932 163.74 222.292 165.26 225.332 165.26C228.372 165.26 230.732 163.74 230.732 160.88C230.732 159.52 230.152 158.14 228.432 157.26C229.752 156.48 230.292 155.2 230.292 153.96ZM225.332 152.06C226.912 152.06 227.932 152.88 227.932 154.26C227.932 155.64 226.912 156.56 225.332 156.56C223.772 156.56 222.712 155.64 222.712 154.26C222.712 152.88 223.772 152.06 225.332 152.06ZM222.412 160.8C222.412 159.18 223.552 158.18 225.332 158.18C227.112 158.18 228.252 159.18 228.252 160.8C228.252 162.44 227.112 163.42 225.332 163.42C223.552 163.42 222.412 162.44 222.412 160.8Z" fill="#333333"/>
<path d="M21.24 108.592H23.62V94.0918H21.86C21.12 95.6718 20.1 95.8518 18 95.9118V97.5518H21.24V108.592ZM33.9089 104.512C33.9089 106.092 32.6489 107.012 30.9689 107.012C29.0689 107.012 28.1289 105.692 27.8889 104.092H25.5689C25.7489 106.652 27.5689 108.852 30.9289 108.852C33.8289 108.852 36.3689 107.412 36.3689 104.452C36.3689 102.972 35.6089 101.552 33.8689 100.912C35.1489 100.292 35.9889 99.0918 35.9889 97.6518C35.9889 94.9318 33.5889 93.8318 31.1689 93.8318C27.9489 93.8318 25.9689 95.6518 25.7489 98.4118H28.0689C28.2889 96.7118 29.2689 95.6518 31.0289 95.6518C32.3689 95.6518 33.5489 96.3318 33.5489 97.7918C33.5489 99.2918 32.4489 100.032 30.1889 100.032H29.5889V102.012H30.2889C32.4289 102.012 33.9089 102.652 33.9089 104.512ZM49.4006 105.192V103.132H46.8406V94.0918H44.4806L37.3006 103.212V105.192H44.4606V108.592H46.8406V105.192H49.4006ZM39.9006 103.132L44.4606 97.1918V103.132H39.9006Z" fill="#333333"/>
<path d="M24.24 18.5C25.04 18.5 25.8067 18.5467 26.54 18.64C27.2867 18.7333 27.94 18.94 28.5 19.26C29.0733 19.58 29.5333 20.04 29.88 20.64C30.2267 21.24 30.4 22.0467 30.4 23.06C30.4 23.98 30.24 24.7267 29.92 25.3C29.6 25.8733 29.1667 26.3267 28.62 26.66C28.0733 26.9933 27.4267 27.22 26.68 27.34C25.9333 27.46 25.1333 27.52 24.28 27.52H22V33H19.46V18.5H24.24ZM22 20.54V25.44H24.36C24.84 25.44 25.2867 25.4133 25.7 25.36C26.1133 25.3067 26.4733 25.2 26.78 25.04C27.0867 24.88 27.3267 24.6467 27.5 24.34C27.6733 24.02 27.76 23.6 27.76 23.08C27.76 22.4933 27.66 22.0333 27.46 21.7C27.26 21.3533 26.9933 21.1 26.66 20.94C26.34 20.7667 25.9667 20.66 25.54 20.62C25.1133 20.5667 24.68 20.54 24.24 20.54H22ZM34.3372 18.5V20.9H31.9572V18.5H34.3372ZM34.3372 22.24V33H31.9572V22.24H34.3372ZM39.2958 27.62C39.2958 28.2467 39.3624 28.7933 39.4958 29.26C39.6424 29.7133 39.8424 30.0933 40.0958 30.4C40.3491 30.7067 40.6424 30.94 40.9758 31.1C41.3224 31.2467 41.6891 31.32 42.0758 31.32C42.9158 31.32 43.5691 30.9933 44.0358 30.34C44.5024 29.6733 44.7358 28.7667 44.7358 27.62C44.7358 26.4867 44.5024 25.5933 44.0358 24.94C43.5691 24.2733 42.9158 23.94 42.0758 23.94C41.6891 23.94 41.3224 24.02 40.9758 24.18C40.6424 24.3267 40.3491 24.5533 40.0958 24.86C39.8424 25.1533 39.6424 25.5333 39.4958 26C39.3624 26.4667 39.2958 27.0067 39.2958 27.62ZM39.3958 22.24V23.68C39.7158 23.1467 40.1491 22.7333 40.6958 22.44C41.2424 22.1467 41.8758 22 42.5958 22C43.2491 22 43.8558 22.1333 44.4158 22.4C44.9891 22.6533 45.4824 23.0267 45.8958 23.52C46.3091 24.0133 46.6291 24.6067 46.8558 25.3C47.0958 25.9933 47.2158 26.7667 47.2158 27.62C47.2158 28.4867 47.0958 29.2667 46.8558 29.96C46.6291 30.6533 46.3091 31.2467 45.8958 31.74C45.4824 32.2333 44.9891 32.6133 44.4158 32.88C43.8558 33.1333 43.2491 33.26 42.5958 33.26C41.8758 33.26 41.2424 33.1133 40.6958 32.82C40.1491 32.5267 39.7158 32.1133 39.3958 31.58V36.5H37.0158V22.24H39.3958ZM53.9414 33.26C53.0614 33.26 52.2814 33.1067 51.6014 32.8C50.9347 32.4933 50.3747 32.08 49.9214 31.56C49.4814 31.04 49.1414 30.4333 48.9014 29.74C48.6747 29.0467 48.5614 28.3133 48.5614 27.54C48.5614 26.7267 48.6881 25.9867 48.9414 25.32C49.1947 24.64 49.5481 24.0533 50.0014 23.56C50.4547 23.0667 51.0014 22.6867 51.6414 22.42C52.2814 22.14 52.9947 22 53.7814 22C54.6214 22 55.3681 22.16 56.0214 22.48C56.6747 22.8 57.2214 23.24 57.6614 23.8C58.1014 24.36 58.4281 25.0267 58.6414 25.8C58.8547 26.56 58.9347 27.3933 58.8814 28.3H50.9814C50.9947 28.7267 51.0747 29.1267 51.2214 29.5C51.3814 29.86 51.5881 30.1733 51.8414 30.44C52.0947 30.7067 52.3881 30.9133 52.7214 31.06C53.0681 31.2067 53.4414 31.28 53.8414 31.28C55.1347 31.28 55.9947 30.78 56.4214 29.78H58.7614C58.6414 30.2067 58.4547 30.6333 58.2014 31.06C57.9481 31.4733 57.6214 31.8467 57.2214 32.18C56.8347 32.5 56.3681 32.76 55.8214 32.96C55.2747 33.16 54.6481 33.26 53.9414 33.26ZM53.7814 23.86C53.4481 23.86 53.1147 23.9133 52.7814 24.02C52.4614 24.1267 52.1681 24.2933 51.9014 24.52C51.6481 24.7333 51.4347 25.0133 51.2614 25.36C51.0881 25.6933 50.9947 26.0933 50.9814 26.56H56.4614C56.4481 26.1467 56.3681 25.7733 56.2214 25.44C56.0747 25.0933 55.8814 24.8067 55.6414 24.58C55.4014 24.3533 55.1214 24.18 54.8014 24.06C54.4814 23.9267 54.1414 23.86 53.7814 23.86ZM63.2434 33H60.8634V18.5H63.2434V33ZM68.302 18.5V20.9H65.922V18.5H68.302ZM68.302 22.24V33H65.922V22.24H68.302ZM73.3606 23.74C73.6673 23.18 74.094 22.7533 74.6406 22.46C75.2006 22.1533 75.8606 22 76.6206 22C77.274 22 77.8273 22.1 78.2806 22.3C78.7473 22.5 79.1273 22.7867 79.4206 23.16C79.714 23.5333 79.9273 23.98 80.0606 24.5C80.2073 25.02 80.2806 25.6 80.2806 26.24V33H77.9006V26.82C77.9006 26.46 77.8806 26.1067 77.8406 25.76C77.8006 25.4133 77.7073 25.1067 77.5606 24.84C77.4273 24.56 77.2206 24.34 76.9406 24.18C76.674 24.02 76.314 23.94 75.8606 23.94C75.4073 23.94 75.0206 24.0267 74.7006 24.2C74.3806 24.36 74.1206 24.5867 73.9206 24.88C73.7206 25.1733 73.574 25.5267 73.4806 25.94C73.4006 26.3533 73.3606 26.8 73.3606 27.28V33H70.9806V22.24H73.3606V23.74ZM87.418 33.26C86.538 33.26 85.758 33.1067 85.078 32.8C84.4113 32.4933 83.8513 32.08 83.398 31.56C82.958 31.04 82.618 30.4333 82.378 29.74C82.1513 29.0467 82.038 28.3133 82.038 27.54C82.038 26.7267 82.1646 25.9867 82.418 25.32C82.6713 24.64 83.0246 24.0533 83.478 23.56C83.9313 23.0667 84.478 22.6867 85.118 22.42C85.758 22.14 86.4713 22 87.258 22C88.098 22 88.8446 22.16 89.498 22.48C90.1513 22.8 90.698 23.24 91.138 23.8C91.578 24.36 91.9046 25.0267 92.118 25.8C92.3313 26.56 92.4113 27.3933 92.358 28.3H84.458C84.4713 28.7267 84.5513 29.1267 84.698 29.5C84.858 29.86 85.0646 30.1733 85.318 30.44C85.5713 30.7067 85.8646 30.9133 86.198 31.06C86.5446 31.2067 86.918 31.28 87.318 31.28C88.6113 31.28 89.4713 30.78 89.898 29.78H92.238C92.118 30.2067 91.9313 30.6333 91.678 31.06C91.4246 31.4733 91.098 31.8467 90.698 32.18C90.3113 32.5 89.8446 32.76 89.298 32.96C88.7513 33.16 88.1246 33.26 87.418 33.26ZM87.258 23.86C86.9246 23.86 86.5913 23.9133 86.258 24.02C85.938 24.1267 85.6446 24.2933 85.378 24.52C85.1246 24.7333 84.9113 25.0133 84.738 25.36C84.5646 25.6933 84.4713 26.0933 84.458 26.56H89.938C89.9246 26.1467 89.8446 25.7733 89.698 25.44C89.5513 25.0933 89.358 24.8067 89.118 24.58C88.878 24.3533 88.598 24.18 88.278 24.06C87.958 23.9267 87.618 23.86 87.258 23.86ZM105.229 33L101.549 21.26V33H99.0694V18.5H103.009L106.529 30.06L110.029 18.5H113.969V33H111.489V21.26L107.809 33H105.229ZM123.422 27.94C122.569 28.02 121.842 28.1133 121.242 28.22C120.642 28.3267 120.149 28.46 119.762 28.62C119.375 28.78 119.089 28.9733 118.902 29.2C118.729 29.4133 118.642 29.6733 118.642 29.98C118.642 30.4467 118.822 30.8133 119.182 31.08C119.542 31.3467 120.022 31.48 120.622 31.48C121.502 31.48 122.189 31.24 122.682 30.76C123.175 30.2667 123.422 29.4533 123.422 28.32V27.94ZM121.162 21.92C121.829 21.92 122.442 22 123.002 22.16C123.575 22.32 124.069 22.58 124.482 22.94C124.895 23.3 125.209 23.7733 125.422 24.36C125.649 24.9467 125.755 25.6667 125.742 26.52C125.742 26.6533 125.735 26.8333 125.722 27.06C125.722 27.2733 125.722 27.5067 125.722 27.76C125.722 28.0133 125.715 28.28 125.702 28.56C125.702 28.8267 125.702 29.08 125.702 29.32C125.702 30 125.729 30.6733 125.782 31.34C125.835 31.9933 125.915 32.5467 126.022 33H123.842C123.802 32.7733 123.762 32.5533 123.722 32.34C123.695 32.1267 123.669 31.8333 123.642 31.46C123.309 32.06 122.835 32.5133 122.222 32.82C121.609 33.1133 120.902 33.26 120.102 33.26C119.515 33.26 118.975 33.18 118.482 33.02C118.002 32.8733 117.582 32.66 117.222 32.38C116.875 32.1 116.602 31.7667 116.402 31.38C116.215 30.98 116.122 30.5333 116.122 30.04C116.122 29.3733 116.315 28.82 116.702 28.38C117.089 27.94 117.609 27.58 118.262 27.3C118.929 27.02 119.695 26.8067 120.562 26.66C121.442 26.5133 122.375 26.3867 123.362 26.28V26.02C123.362 25.5667 123.302 25.1933 123.182 24.9C123.062 24.5933 122.895 24.3533 122.682 24.18C122.482 23.9933 122.242 23.8667 121.962 23.8C121.682 23.72 121.375 23.68 121.042 23.68C120.429 23.68 119.915 23.84 119.502 24.16C119.089 24.48 118.869 24.9667 118.842 25.62H116.502C116.542 25.0733 116.682 24.5733 116.922 24.12C117.162 23.6667 117.482 23.28 117.882 22.96C118.295 22.6267 118.775 22.3733 119.322 22.2C119.882 22.0133 120.495 21.92 121.162 21.92ZM130.529 23.74C130.835 23.18 131.262 22.7533 131.809 22.46C132.369 22.1533 133.029 22 133.789 22C134.442 22 134.995 22.1 135.449 22.3C135.915 22.5 136.295 22.7867 136.589 23.16C136.882 23.5333 137.095 23.98 137.229 24.5C137.375 25.02 137.449 25.6 137.449 26.24V33H135.069V26.82C135.069 26.46 135.049 26.1067 135.009 25.76C134.969 25.4133 134.875 25.1067 134.729 24.84C134.595 24.56 134.389 24.34 134.109 24.18C133.842 24.02 133.482 23.94 133.029 23.94C132.575 23.94 132.189 24.0267 131.869 24.2C131.549 24.36 131.289 24.5867 131.089 24.88C130.889 25.1733 130.742 25.5267 130.649 25.94C130.569 26.3533 130.529 26.8 130.529 27.28V33H128.149V22.24H130.529V23.74ZM146.586 27.94C145.733 28.02 145.006 28.1133 144.406 28.22C143.806 28.3267 143.313 28.46 142.926 28.62C142.539 28.78 142.253 28.9733 142.066 29.2C141.893 29.4133 141.806 29.6733 141.806 29.98C141.806 30.4467 141.986 30.8133 142.346 31.08C142.706 31.3467 143.186 31.48 143.786 31.48C144.666 31.48 145.353 31.24 145.846 30.76C146.339 30.2667 146.586 29.4533 146.586 28.32V27.94ZM144.326 21.92C144.993 21.92 145.606 22 146.166 22.16C146.739 22.32 147.233 22.58 147.646 22.94C148.059 23.3 148.373 23.7733 148.586 24.36C148.813 24.9467 148.919 25.6667 148.906 26.52C148.906 26.6533 148.899 26.8333 148.886 27.06C148.886 27.2733 148.886 27.5067 148.886 27.76C148.886 28.0133 148.879 28.28 148.866 28.56C148.866 28.8267 148.866 29.08 148.866 29.32C148.866 30 148.893 30.6733 148.946 31.34C148.999 31.9933 149.079 32.5467 149.186 33H147.006C146.966 32.7733 146.926 32.5533 146.886 32.34C146.859 32.1267 146.833 31.8333 146.806 31.46C146.473 32.06 145.999 32.5133 145.386 32.82C144.773 33.1133 144.066 33.26 143.266 33.26C142.679 33.26 142.139 33.18 141.646 33.02C141.166 32.8733 140.746 32.66 140.386 32.38C140.039 32.1 139.766 31.7667 139.566 31.38C139.379 30.98 139.286 30.5333 139.286 30.04C139.286 29.3733 139.479 28.82 139.866 28.38C140.253 27.94 140.773 27.58 141.426 27.3C142.093 27.02 142.859 26.8067 143.726 26.66C144.606 26.5133 145.539 26.3867 146.526 26.28V26.02C146.526 25.5667 146.466 25.1933 146.346 24.9C146.226 24.5933 146.059 24.3533 145.846 24.18C145.646 23.9933 145.406 23.8667 145.126 23.8C144.846 23.72 144.539 23.68 144.206 23.68C143.593 23.68 143.079 23.84 142.666 24.16C142.253 24.48 142.033 24.9667 142.006 25.62H139.666C139.706 25.0733 139.846 24.5733 140.086 24.12C140.326 23.6667 140.646 23.28 141.046 22.96C141.459 22.6267 141.939 22.3733 142.486 22.2C143.046 22.0133 143.659 21.92 144.326 21.92ZM158.373 22.24H160.753V31.92C160.753 33.68 160.313 34.9467 159.433 35.72C158.566 36.4933 157.299 36.88 155.633 36.88C155.046 36.88 154.493 36.82 153.973 36.7C153.453 36.58 152.986 36.3867 152.573 36.12C152.173 35.8533 151.839 35.5067 151.573 35.08C151.306 34.6667 151.126 34.1667 151.033 33.58H153.393C153.499 34.0867 153.726 34.4467 154.073 34.66C154.433 34.8867 154.973 35 155.693 35C156.226 35 156.666 34.9267 157.013 34.78C157.359 34.6467 157.633 34.46 157.833 34.22C158.033 33.98 158.173 33.7 158.253 33.38C158.333 33.0733 158.373 32.7467 158.373 32.4V31.14C158.053 31.6733 157.619 32.0867 157.073 32.38C156.526 32.6733 155.893 32.82 155.173 32.82C154.519 32.82 153.906 32.7 153.333 32.46C152.773 32.2067 152.286 31.8467 151.873 31.38C151.459 30.9 151.133 30.3267 150.893 29.66C150.666 28.9933 150.553 28.24 150.553 27.4C150.553 26.56 150.666 25.8067 150.893 25.14C151.133 24.4733 151.459 23.9067 151.873 23.44C152.286 22.9733 152.773 22.62 153.333 22.38C153.906 22.1267 154.519 22 155.173 22C155.893 22 156.526 22.1467 157.073 22.44C157.619 22.7333 158.053 23.1467 158.373 23.68V22.24ZM158.473 27.4C158.473 26.8 158.399 26.28 158.253 25.84C158.106 25.4 157.906 25.04 157.653 24.76C157.413 24.4667 157.119 24.2533 156.773 24.12C156.439 23.9733 156.079 23.9 155.693 23.9C154.853 23.9 154.199 24.2133 153.733 24.84C153.266 25.4667 153.033 26.32 153.033 27.4C153.033 28.5067 153.266 29.3733 153.733 30C154.199 30.6267 154.853 30.94 155.693 30.94C156.079 30.94 156.439 30.8733 156.773 30.74C157.119 30.5933 157.413 30.3733 157.653 30.08C157.906 29.7867 158.106 29.42 158.253 28.98C158.399 28.5267 158.473 28 158.473 27.4ZM168.082 33.26C167.202 33.26 166.422 33.1067 165.742 32.8C165.075 32.4933 164.515 32.08 164.062 31.56C163.622 31.04 163.282 30.4333 163.042 29.74C162.815 29.0467 162.702 28.3133 162.702 27.54C162.702 26.7267 162.829 25.9867 163.082 25.32C163.335 24.64 163.689 24.0533 164.142 23.56C164.595 23.0667 165.142 22.6867 165.782 22.42C166.422 22.14 167.135 22 167.922 22C168.762 22 169.509 22.16 170.162 22.48C170.815 22.8 171.362 23.24 171.802 23.8C172.242 24.36 172.569 25.0267 172.782 25.8C172.995 26.56 173.075 27.3933 173.022 28.3H165.122C165.135 28.7267 165.215 29.1267 165.362 29.5C165.522 29.86 165.729 30.1733 165.982 30.44C166.235 30.7067 166.529 30.9133 166.862 31.06C167.209 31.2067 167.582 31.28 167.982 31.28C169.275 31.28 170.135 30.78 170.562 29.78H172.902C172.782 30.2067 172.595 30.6333 172.342 31.06C172.089 31.4733 171.762 31.8467 171.362 32.18C170.975 32.5 170.509 32.76 169.962 32.96C169.415 33.16 168.789 33.26 168.082 33.26ZM167.922 23.86C167.589 23.86 167.255 23.9133 166.922 24.02C166.602 24.1267 166.309 24.2933 166.042 24.52C165.789 24.7333 165.575 25.0133 165.402 25.36C165.229 25.6933 165.135 26.0933 165.122 26.56H170.602C170.589 26.1467 170.509 25.7733 170.362 25.44C170.215 25.0933 170.022 24.8067 169.782 24.58C169.542 24.3533 169.262 24.18 168.942 24.06C168.622 23.9267 168.282 23.86 167.922 23.86ZM177.384 33H175.004V22.24H177.384V23.74C177.691 23.18 178.104 22.7533 178.624 22.46C179.157 22.1533 179.784 22 180.504 22C181.344 22 182.011 22.1667 182.504 22.5C183.011 22.8333 183.391 23.3 183.644 23.9C184.111 23.22 184.644 22.7333 185.244 22.44C185.844 22.1467 186.477 22 187.144 22C187.784 22 188.324 22.1 188.764 22.3C189.217 22.5 189.584 22.7867 189.864 23.16C190.144 23.5333 190.344 23.98 190.464 24.5C190.597 25.02 190.664 25.6 190.664 26.24V33H188.284V26.82C188.284 26.46 188.264 26.1067 188.224 25.76C188.197 25.4133 188.117 25.1067 187.984 24.84C187.864 24.56 187.677 24.34 187.424 24.18C187.171 24.02 186.824 23.94 186.384 23.94C185.944 23.94 185.571 24.0267 185.264 24.2C184.971 24.36 184.731 24.5867 184.544 24.88C184.357 25.1733 184.224 25.5267 184.144 25.94C184.064 26.3533 184.024 26.8 184.024 27.28V33H181.644V26.82C181.644 26.46 181.624 26.1067 181.584 25.76C181.557 25.4133 181.477 25.1067 181.344 24.84C181.224 24.56 181.037 24.34 180.784 24.18C180.531 24.02 180.184 23.94 179.744 23.94C179.304 23.94 178.931 24.0267 178.624 24.2C178.331 24.36 178.091 24.5867 177.904 24.88C177.717 25.1733 177.584 25.5267 177.504 25.94C177.424 26.3533 177.384 26.8 177.384 27.28V33ZM197.809 33.26C196.929 33.26 196.149 33.1067 195.469 32.8C194.802 32.4933 194.242 32.08 193.789 31.56C193.349 31.04 193.009 30.4333 192.769 29.74C192.542 29.0467 192.429 28.3133 192.429 27.54C192.429 26.7267 192.555 25.9867 192.809 25.32C193.062 24.64 193.415 24.0533 193.869 23.56C194.322 23.0667 194.869 22.6867 195.509 22.42C196.149 22.14 196.862 22 197.649 22C198.489 22 199.235 22.16 199.889 22.48C200.542 22.8 201.089 23.24 201.529 23.8C201.969 24.36 202.295 25.0267 202.509 25.8C202.722 26.56 202.802 27.3933 202.749 28.3H194.849C194.862 28.7267 194.942 29.1267 195.089 29.5C195.249 29.86 195.455 30.1733 195.709 30.44C195.962 30.7067 196.255 30.9133 196.589 31.06C196.935 31.2067 197.309 31.28 197.709 31.28C199.002 31.28 199.862 30.78 200.289 29.78H202.629C202.509 30.2067 202.322 30.6333 202.069 31.06C201.815 31.4733 201.489 31.8467 201.089 32.18C200.702 32.5 200.235 32.76 199.689 32.96C199.142 33.16 198.515 33.26 197.809 33.26ZM197.649 23.86C197.315 23.86 196.982 23.9133 196.649 24.02C196.329 24.1267 196.035 24.2933 195.769 24.52C195.515 24.7333 195.302 25.0133 195.129 25.36C194.955 25.6933 194.862 26.0933 194.849 26.56H200.329C200.315 26.1467 200.235 25.7733 200.089 25.44C199.942 25.0933 199.749 24.8067 199.509 24.58C199.269 24.3533 198.989 24.18 198.669 24.06C198.349 23.9267 198.009 23.86 197.649 23.86ZM207.111 23.74C207.417 23.18 207.844 22.7533 208.391 22.46C208.951 22.1533 209.611 22 210.371 22C211.024 22 211.577 22.1 212.031 22.3C212.497 22.5 212.877 22.7867 213.171 23.16C213.464 23.5333 213.677 23.98 213.811 24.5C213.957 25.02 214.031 25.6 214.031 26.24V33H211.651V26.82C211.651 26.46 211.631 26.1067 211.591 25.76C211.551 25.4133 211.457 25.1067 211.311 24.84C211.177 24.56 210.971 24.34 210.691 24.18C210.424 24.02 210.064 23.94 209.611 23.94C209.157 23.94 208.771 24.0267 208.451 24.2C208.131 24.36 207.871 24.5867 207.671 24.88C207.471 25.1733 207.324 25.5267 207.231 25.94C207.151 26.3533 207.111 26.8 207.111 27.28V33H204.731V22.24H207.111V23.74ZM216.848 19.4H219.228V22.24H221.388V23.96H219.228V29.82C219.228 30.3667 219.315 30.7333 219.488 30.92C219.661 31.0933 220.001 31.18 220.508 31.18H221.368V33H219.608C219.035 33 218.568 32.96 218.208 32.88C217.848 32.7867 217.568 32.6333 217.368 32.42C217.168 32.2067 217.028 31.92 216.948 31.56C216.881 31.1867 216.848 30.7267 216.848 30.18V23.96H215.248V22.24H216.848V19.4Z" fill="#333333"/>
<path d="M210.22 100.02C210.26 97.04 211.42 95.06 213.38 95.06C214.68 95.06 215.66 95.74 215.82 97.14H218.24C218.04 95.2 216.6 93.24 213.56 93.24C209.32 93.24 207.8 97 207.8 101.18C207.8 105.42 209.48 108.26 213.24 108.26C216.36 108.26 218.52 106.2 218.52 103.3C218.52 100.28 216.38 98.36 213.7 98.36C212.04 98.36 210.86 99.1 210.22 100.02ZM213.22 106.42C211.58 106.42 210.4 105.26 210.4 103.34C210.4 101.44 211.6 100.24 213.24 100.24C214.88 100.24 216.06 101.44 216.06 103.34C216.06 105.26 214.88 106.42 213.22 106.42ZM228.124 103.92C228.124 105.5 226.864 106.42 225.184 106.42C223.284 106.42 222.344 105.1 222.104 103.5H219.784C219.964 106.06 221.784 108.26 225.144 108.26C228.044 108.26 230.584 106.82 230.584 103.86C230.584 102.38 229.824 100.96 228.084 100.32C229.364 99.7 230.204 98.5 230.204 97.06C230.204 94.34 227.804 93.24 225.384 93.24C222.164 93.24 220.184 95.06 219.964 97.82H222.284C222.504 96.12 223.484 95.06 225.244 95.06C226.584 95.06 227.764 95.74 227.764 97.2C227.764 98.7 226.664 99.44 224.404 99.44H223.804V101.42H224.504C226.644 101.42 228.124 102.06 228.124 103.92Z" fill="#333333"/>
<path d="M19.974 83.6678V76.9793H18.903V84.5918H23.9955V83.6678H19.974ZM25.3438 82.0823H29.6908C29.8168 80.2973 28.7773 78.8483 27.0553 78.8483C25.5118 78.8483 24.3148 79.9928 24.3148 81.7778C24.3148 83.4473 25.3018 84.7283 27.0868 84.7283C28.4623 84.7283 29.3548 83.9303 29.6173 82.9538H28.6303C28.3888 83.5103 27.9268 83.8883 27.0868 83.8883C26.2468 83.8883 25.3858 83.3003 25.3438 82.0823ZM25.3543 81.2633C25.4383 80.1293 26.2048 79.6673 27.0553 79.6673C28.0633 79.6673 28.6618 80.4653 28.6828 81.2633H25.3543ZM30.4171 83.1008C30.4171 84.1403 31.2991 84.7283 32.3596 84.7283C33.3571 84.7283 33.9451 84.3923 34.2916 83.8148C34.3021 84.1508 34.3336 84.3818 34.3651 84.5918H35.3311C35.2261 84.0563 35.1736 83.4053 35.1841 82.4603L35.1946 81.1583C35.2051 79.5728 34.5016 78.8273 32.9476 78.8273C31.8451 78.8273 30.7741 79.5098 30.6796 80.7278H31.6666C31.7086 80.0348 32.1706 79.6043 32.9581 79.6043C33.6616 79.6043 34.2391 79.9508 34.2391 80.9798V81.1163C31.9186 81.3788 30.4171 81.7673 30.4171 83.1008ZM34.3126 81.8723V82.2293C34.3126 83.5628 33.4621 83.9723 32.5696 83.9723C31.8871 83.9723 31.4776 83.6153 31.4776 83.0798C31.4776 82.3028 32.5801 82.0508 34.3126 81.8723ZM40.4928 76.9793V79.8353C40.1463 79.2368 39.5478 78.8483 38.6448 78.8483C37.3533 78.8483 36.2298 79.9298 36.2298 81.7883C36.2298 83.6573 37.3533 84.7283 38.6448 84.7283C39.5478 84.7283 40.1463 84.3398 40.4928 83.7413V84.5918H41.4483V76.9793H40.4928ZM38.8863 79.6673C39.7368 79.6673 40.5348 80.2973 40.5348 81.7883C40.5348 83.2793 39.7368 83.9093 38.8863 83.9093C37.9098 83.9093 37.2693 83.1323 37.2693 81.7883C37.2693 80.4443 37.9098 79.6673 38.8863 79.6673ZM46.1892 80.5913H47.1867C47.0082 79.5203 46.1787 78.8378 44.9607 78.8378C43.7112 78.8378 42.7032 79.4153 42.7032 80.4128C42.7032 81.4628 43.5432 81.8198 44.3097 81.9773L45.1497 82.1453C45.7587 82.2713 46.2942 82.5128 46.2942 83.0798C46.2942 83.6048 45.7062 83.9198 44.9817 83.9198C44.1417 83.9198 43.6902 83.4893 43.5432 82.7648H42.5352C42.6402 83.7518 43.4802 84.7283 44.9607 84.7283C46.2522 84.7283 47.2602 84.0878 47.2602 82.9748C47.2602 81.8828 46.3572 81.4943 45.3282 81.2948L44.5302 81.1373C43.9842 81.0323 43.6692 80.8223 43.6692 80.3708C43.6692 79.8563 44.2992 79.6568 44.8557 79.6568C45.5172 79.6568 46.0422 79.9193 46.1892 80.5913ZM53.032 76.9793L50.2075 84.5918H51.2995L51.8875 82.9433H55.384L55.9825 84.5918H57.1375L54.271 76.9793H53.032ZM52.213 82.0298L53.62 78.0608L55.048 82.0298H52.213ZM61.8209 76.9793V79.8353C61.4744 79.2368 60.8759 78.8483 59.9729 78.8483C58.6814 78.8483 57.5579 79.9298 57.5579 81.7883C57.5579 83.6573 58.6814 84.7283 59.9729 84.7283C60.8759 84.7283 61.4744 84.3398 61.8209 83.7413V84.5918H62.7764V76.9793H61.8209ZM60.2144 79.6673C61.0649 79.6673 61.8629 80.2973 61.8629 81.7883C61.8629 83.2793 61.0649 83.9093 60.2144 83.9093C59.2379 83.9093 58.5974 83.1323 58.5974 81.7883C58.5974 80.4443 59.2379 79.6673 60.2144 79.6673ZM68.1578 76.9793V79.8353C67.8113 79.2368 67.2128 78.8483 66.3098 78.8483C65.0183 78.8483 63.8948 79.9298 63.8948 81.7883C63.8948 83.6573 65.0183 84.7283 66.3098 84.7283C67.2128 84.7283 67.8113 84.3398 68.1578 83.7413V84.5918H69.1133V76.9793H68.1578ZM66.5513 79.6673C67.4018 79.6673 68.1998 80.2973 68.1998 81.7883C68.1998 83.2793 67.4018 83.9093 66.5513 83.9093C65.5748 83.9093 64.9343 83.1323 64.9343 81.7883C64.9343 80.4443 65.5748 79.6673 66.5513 79.6673ZM71.2608 82.0823H75.6078C75.7338 80.2973 74.6943 78.8483 72.9723 78.8483C71.4288 78.8483 70.2318 79.9928 70.2318 81.7778C70.2318 83.4473 71.2188 84.7283 73.0038 84.7283C74.3793 84.7283 75.2718 83.9303 75.5343 82.9538H74.5473C74.3058 83.5103 73.8438 83.8883 73.0038 83.8883C72.1638 83.8883 71.3028 83.3003 71.2608 82.0823ZM71.2713 81.2633C71.3553 80.1293 72.1218 79.6673 72.9723 79.6673C73.9803 79.6673 74.5788 80.4653 74.5998 81.2633H71.2713ZM80.6471 76.9793V79.8353C80.3006 79.2368 79.7021 78.8483 78.7991 78.8483C77.5076 78.8483 76.3841 79.9298 76.3841 81.7883C76.3841 83.6573 77.5076 84.7283 78.7991 84.7283C79.7021 84.7283 80.3006 84.3398 80.6471 83.7413V84.5918H81.6026V76.9793H80.6471ZM79.0406 79.6673C79.8911 79.6673 80.6891 80.2973 80.6891 81.7883C80.6891 83.2793 79.8911 83.9093 79.0406 83.9093C78.0641 83.9093 77.4236 83.1323 77.4236 81.7883C77.4236 80.4443 78.0641 79.6673 79.0406 79.6673Z" fill="#808084"/>
<path d="M214.287 82.5745C214.203 82.9945 214.06 83.3655 213.857 83.6875C213.661 84.0025 213.419 84.2685 213.132 84.4855C212.845 84.7025 212.52 84.867 212.156 84.979C211.792 85.084 211.403 85.1365 210.99 85.1365C210.444 85.1365 209.958 85.0385 209.531 84.8425C209.104 84.6465 208.74 84.3735 208.439 84.0235C208.145 83.6735 207.921 83.257 207.767 82.774C207.613 82.291 207.536 81.759 207.536 81.178C207.536 80.59 207.62 80.0545 207.788 79.5715C207.956 79.0885 208.194 78.6755 208.502 78.3325C208.81 77.9895 209.181 77.7235 209.615 77.5345C210.049 77.3455 210.535 77.251 211.074 77.251C211.466 77.251 211.837 77.3105 212.187 77.4295C212.537 77.5415 212.849 77.706 213.122 77.923C213.402 78.14 213.636 78.4095 213.825 78.7315C214.021 79.0465 214.161 79.407 214.245 79.813H213.206C213.15 79.575 213.059 79.3545 212.932 79.1515C212.814 78.9485 212.663 78.7735 212.481 78.6265C212.299 78.4795 212.086 78.364 211.841 78.28C211.596 78.196 211.323 78.154 211.022 78.154C210.686 78.154 210.371 78.2205 210.077 78.3535C209.79 78.4795 209.538 78.672 209.321 78.931C209.104 79.183 208.932 79.498 208.806 79.876C208.687 80.254 208.628 80.688 208.628 81.178C208.628 81.661 208.687 82.0915 208.806 82.4695C208.925 82.8475 209.093 83.1695 209.31 83.4355C209.527 83.6945 209.783 83.894 210.077 84.034C210.371 84.167 210.696 84.2335 211.053 84.2335C211.662 84.2335 212.149 84.0795 212.513 83.7715C212.884 83.4635 213.129 83.0645 213.248 82.5745H214.287ZM216.128 82.1965C216.128 82.5745 216.17 82.8965 216.254 83.1625C216.345 83.4285 216.464 83.6455 216.611 83.8135C216.765 83.9815 216.944 84.104 217.147 84.181C217.35 84.258 217.563 84.2965 217.787 84.2965C218.011 84.2965 218.225 84.2545 218.428 84.1705C218.631 84.0865 218.806 83.9605 218.953 83.7925C219.107 83.6175 219.226 83.4005 219.31 83.1415C219.401 82.8755 219.446 82.5605 219.446 82.1965C219.446 81.8185 219.401 81.4965 219.31 81.2305C219.226 80.9645 219.107 80.7475 218.953 80.5795C218.806 80.4115 218.631 80.289 218.428 80.212C218.225 80.135 218.011 80.0965 217.787 80.0965C217.563 80.0965 217.35 80.135 217.147 80.212C216.944 80.282 216.765 80.401 216.611 80.569C216.464 80.737 216.345 80.954 216.254 81.22C216.17 81.486 216.128 81.8115 216.128 82.1965ZM215.11 82.1965C215.11 81.6855 215.183 81.2445 215.33 80.8735C215.484 80.5025 215.687 80.198 215.939 79.96C216.191 79.722 216.478 79.547 216.8 79.435C217.122 79.316 217.451 79.2565 217.787 79.2565C218.123 79.2565 218.452 79.316 218.774 79.435C219.096 79.547 219.383 79.722 219.635 79.96C219.887 80.198 220.087 80.5025 220.234 80.8735C220.388 81.2445 220.465 81.6855 220.465 82.1965C220.465 82.7075 220.388 83.1485 220.234 83.5195C220.087 83.8905 219.887 84.195 219.635 84.433C219.383 84.671 219.096 84.8495 218.774 84.9685C218.452 85.0805 218.123 85.1365 217.787 85.1365C217.451 85.1365 217.122 85.0805 216.8 84.9685C216.478 84.8495 216.191 84.671 215.939 84.433C215.687 84.195 215.484 83.8905 215.33 83.5195C215.183 83.1485 215.11 82.7075 215.11 82.1965ZM222.565 80.2015C222.726 79.9355 222.95 79.7115 223.237 79.5295C223.531 79.3475 223.916 79.2565 224.392 79.2565C224.735 79.2565 225.022 79.309 225.253 79.414C225.491 79.519 225.683 79.6695 225.83 79.8655C225.977 80.0545 226.082 80.282 226.145 80.548C226.215 80.814 226.25 81.108 226.25 81.43V85H225.295V81.7135C225.295 81.4965 225.281 81.29 225.253 81.094C225.225 80.898 225.169 80.7265 225.085 80.5795C225.001 80.4255 224.875 80.3065 224.707 80.2225C224.546 80.1315 224.329 80.086 224.056 80.086C223.594 80.086 223.23 80.2435 222.964 80.5585C222.698 80.8665 222.565 81.325 222.565 81.934V85H221.609V79.351H222.565V80.2015ZM230.955 80.9995C230.878 80.6635 230.717 80.4255 230.472 80.2855C230.234 80.1385 229.937 80.065 229.58 80.065C229.433 80.065 229.286 80.079 229.139 80.107C228.992 80.128 228.859 80.17 228.74 80.233C228.628 80.289 228.533 80.3625 228.456 80.4535C228.386 80.5445 228.351 80.653 228.351 80.779C228.351 81.003 228.428 81.171 228.582 81.283C228.736 81.395 228.96 81.4825 229.254 81.5455L230.052 81.703C230.318 81.759 230.57 81.8255 230.808 81.9025C231.053 81.9795 231.263 82.0845 231.438 82.2175C231.62 82.3435 231.764 82.501 231.869 82.69C231.974 82.879 232.026 83.11 232.026 83.383C232.026 83.663 231.967 83.9115 231.848 84.1285C231.729 84.3455 231.564 84.531 231.354 84.685C231.144 84.832 230.896 84.944 230.609 85.021C230.329 85.098 230.021 85.1365 229.685 85.1365C229.307 85.1365 228.967 85.0805 228.666 84.9685C228.372 84.8565 228.12 84.7095 227.91 84.5275C227.707 84.3455 227.546 84.1355 227.427 83.8975C227.315 83.6595 227.245 83.418 227.217 83.173H228.225C228.302 83.537 228.456 83.8205 228.687 84.0235C228.925 84.2265 229.265 84.328 229.706 84.328C230.091 84.328 230.413 84.2545 230.672 84.1075C230.931 83.9605 231.06 83.754 231.06 83.488C231.06 83.348 231.029 83.2255 230.966 83.1205C230.903 83.0155 230.815 82.928 230.703 82.858C230.598 82.781 230.472 82.7215 230.325 82.6795C230.185 82.6305 230.035 82.5885 229.874 82.5535L229.034 82.3855C228.831 82.3435 228.631 82.2875 228.435 82.2175C228.239 82.1475 228.061 82.053 227.9 81.934C227.746 81.815 227.62 81.668 227.522 81.493C227.431 81.311 227.385 81.087 227.385 80.821C227.385 80.569 227.445 80.3485 227.564 80.1595C227.683 79.9635 227.844 79.799 228.047 79.666C228.257 79.526 228.502 79.421 228.782 79.351C229.062 79.281 229.363 79.246 229.685 79.246C230.322 79.246 230.836 79.4035 231.228 79.7185C231.62 80.0335 231.862 80.4605 231.953 80.9995H230.955ZM236.692 84.1915C236.531 84.4575 236.311 84.6815 236.031 84.8635C235.758 85.0455 235.387 85.1365 234.918 85.1365C234.589 85.1365 234.309 85.084 234.078 84.979C233.854 84.874 233.668 84.727 233.521 84.538C233.381 84.342 233.276 84.111 233.206 83.845C233.143 83.579 233.112 83.285 233.112 82.963V79.351H234.067V82.6795C234.067 82.8965 234.078 83.103 234.099 83.299C234.127 83.495 234.183 83.67 234.267 83.824C234.351 83.971 234.47 84.09 234.624 84.181C234.785 84.265 234.995 84.307 235.254 84.307C235.709 84.307 236.062 84.153 236.314 83.845C236.566 83.53 236.692 83.068 236.692 82.459V79.351H237.648V85H236.692V84.1915ZM240.119 85H239.164V77.3875H240.119V85ZM241.908 77.9335H242.863V79.351H243.934V80.1175H242.863V83.467C242.863 83.614 242.867 83.7365 242.874 83.8345C242.888 83.9255 242.912 83.999 242.947 84.055C242.989 84.111 243.049 84.1495 243.126 84.1705C243.203 84.1915 243.311 84.202 243.451 84.202H243.934V85H243.241C242.968 85 242.744 84.9825 242.569 84.9475C242.401 84.9055 242.268 84.8355 242.17 84.7375C242.072 84.6325 242.002 84.489 241.96 84.307C241.925 84.118 241.908 83.8765 241.908 83.5825V80.1175H241.015V79.351H241.908V77.9335ZM248.619 82.2805C248.185 82.3225 247.793 82.375 247.443 82.438C247.093 82.494 246.796 82.5675 246.551 82.6585C246.306 82.7425 246.117 82.8545 245.984 82.9945C245.851 83.1275 245.784 83.292 245.784 83.488C245.784 83.754 245.879 83.971 246.068 84.139C246.264 84.3 246.533 84.3805 246.876 84.3805C247.1 84.3805 247.317 84.3525 247.527 84.2965C247.737 84.2335 247.923 84.132 248.084 83.992C248.245 83.845 248.374 83.649 248.472 83.404C248.57 83.159 248.619 82.8475 248.619 82.4695V82.2805ZM246.666 85.1365C246.4 85.1365 246.148 85.098 245.91 85.021C245.679 84.951 245.473 84.8495 245.291 84.7165C245.116 84.5765 244.976 84.4085 244.871 84.2125C244.773 84.0095 244.724 83.782 244.724 83.53C244.724 83.194 244.815 82.914 244.997 82.69C245.179 82.459 245.434 82.27 245.763 82.123C246.099 81.969 246.502 81.8465 246.971 81.7555C247.44 81.6645 247.965 81.5875 248.546 81.5245V81.367C248.546 81.101 248.511 80.8805 248.441 80.7055C248.378 80.5305 248.287 80.394 248.168 80.296C248.049 80.191 247.909 80.1175 247.748 80.0755C247.587 80.0335 247.415 80.0125 247.233 80.0125C246.792 80.0125 246.46 80.114 246.236 80.317C246.012 80.513 245.889 80.786 245.868 81.136H244.881C244.902 80.835 244.983 80.5655 245.123 80.3275C245.263 80.0895 245.441 79.89 245.658 79.729C245.875 79.568 246.12 79.4455 246.393 79.3615C246.666 79.2775 246.95 79.2355 247.244 79.2355C248.028 79.2355 248.602 79.4175 248.966 79.7815C249.33 80.1455 249.508 80.7335 249.501 81.5455L249.491 82.8685C249.484 83.3445 249.491 83.754 249.512 84.097C249.54 84.433 249.582 84.734 249.638 85H248.672C248.658 84.895 248.644 84.7725 248.63 84.6325C248.616 84.4925 248.605 84.3385 248.598 84.1705C248.423 84.4645 248.182 84.699 247.874 84.874C247.573 85.049 247.17 85.1365 246.666 85.1365ZM251.188 77.9335H252.143V79.351H253.214V80.1175H252.143V83.467C252.143 83.614 252.147 83.7365 252.154 83.8345C252.168 83.9255 252.192 83.999 252.227 84.055C252.269 84.111 252.329 84.1495 252.406 84.1705C252.483 84.1915 252.591 84.202 252.731 84.202H253.214V85H252.521C252.248 85 252.024 84.9825 251.849 84.9475C251.681 84.9055 251.548 84.8355 251.45 84.7375C251.352 84.6325 251.282 84.489 251.24 84.307C251.205 84.118 251.188 83.8765 251.188 83.5825V80.1175H250.295V79.351H251.188V77.9335ZM255.387 79.351V85H254.432V79.351H255.387ZM255.387 77.3875V78.5425H254.432V77.3875H255.387ZM257.554 82.1965C257.554 82.5745 257.596 82.8965 257.68 83.1625C257.771 83.4285 257.89 83.6455 258.037 83.8135C258.191 83.9815 258.369 84.104 258.572 84.181C258.775 84.258 258.989 84.2965 259.213 84.2965C259.437 84.2965 259.65 84.2545 259.853 84.1705C260.056 84.0865 260.231 83.9605 260.378 83.7925C260.532 83.6175 260.651 83.4005 260.735 83.1415C260.826 82.8755 260.872 82.5605 260.872 82.1965C260.872 81.8185 260.826 81.4965 260.735 81.2305C260.651 80.9645 260.532 80.7475 260.378 80.5795C260.231 80.4115 260.056 80.289 259.853 80.212C259.65 80.135 259.437 80.0965 259.213 80.0965C258.989 80.0965 258.775 80.135 258.572 80.212C258.369 80.282 258.191 80.401 258.037 80.569C257.89 80.737 257.771 80.954 257.68 81.22C257.596 81.486 257.554 81.8115 257.554 82.1965ZM256.535 82.1965C256.535 81.6855 256.609 81.2445 256.756 80.8735C256.91 80.5025 257.113 80.198 257.365 79.96C257.617 79.722 257.904 79.547 258.226 79.435C258.548 79.316 258.877 79.2565 259.213 79.2565C259.549 79.2565 259.878 79.316 260.2 79.435C260.522 79.547 260.809 79.722 261.061 79.96C261.313 80.198 261.512 80.5025 261.659 80.8735C261.813 81.2445 261.89 81.6855 261.89 82.1965C261.89 82.7075 261.813 83.1485 261.659 83.5195C261.512 83.8905 261.313 84.195 261.061 84.433C260.809 84.671 260.522 84.8495 260.2 84.9685C259.878 85.0805 259.549 85.1365 259.213 85.1365C258.877 85.1365 258.548 85.0805 258.226 84.9685C257.904 84.8495 257.617 84.671 257.365 84.433C257.113 84.195 256.91 83.8905 256.756 83.5195C256.609 83.1485 256.535 82.7075 256.535 82.1965ZM263.99 80.2015C264.151 79.9355 264.375 79.7115 264.662 79.5295C264.956 79.3475 265.341 79.2565 265.817 79.2565C266.16 79.2565 266.447 79.309 266.678 79.414C266.916 79.519 267.109 79.6695 267.256 79.8655C267.403 80.0545 267.508 80.282 267.571 80.548C267.641 80.814 267.676 81.108 267.676 81.43V85H266.72V81.7135C266.72 81.4965 266.706 81.29 266.678 81.094C266.65 80.898 266.594 80.7265 266.51 80.5795C266.426 80.4255 266.3 80.3065 266.132 80.2225C265.971 80.1315 265.754 80.086 265.481 80.086C265.019 80.086 264.655 80.2435 264.389 80.5585C264.123 80.8665 263.99 81.325 263.99 81.934V85H263.035V79.351H263.99V80.2015ZM271.429 79.33C271.429 78.966 271.513 78.6545 271.681 78.3955C271.856 78.1295 272.076 77.9125 272.342 77.7445C272.608 77.5765 272.902 77.454 273.224 77.377C273.553 77.293 273.872 77.251 274.18 77.251C274.523 77.251 274.852 77.293 275.167 77.377C275.482 77.454 275.765 77.5765 276.017 77.7445C276.276 77.9125 276.497 78.1295 276.679 78.3955C276.861 78.6545 276.99 78.966 277.067 79.33H276.028C275.965 79.113 275.867 78.931 275.734 78.784C275.601 78.63 275.447 78.5075 275.272 78.4165C275.097 78.3185 274.911 78.252 274.715 78.217C274.519 78.175 274.327 78.154 274.138 78.154C273.991 78.154 273.823 78.1715 273.634 78.2065C273.452 78.2415 273.277 78.3045 273.109 78.3955C272.941 78.4795 272.801 78.595 272.689 78.742C272.577 78.882 272.521 79.057 272.521 79.267C272.521 79.603 272.636 79.862 272.867 80.044C273.105 80.226 273.403 80.3555 273.76 80.4325L274.642 80.632C274.936 80.695 275.233 80.7755 275.534 80.8735C275.835 80.9645 276.108 81.094 276.353 81.262C276.605 81.43 276.808 81.6435 276.962 81.9025C277.123 82.1545 277.204 82.473 277.204 82.858C277.204 83.229 277.123 83.558 276.962 83.845C276.801 84.125 276.588 84.363 276.322 84.559C276.056 84.748 275.748 84.8915 275.398 84.9895C275.048 85.0875 274.684 85.1365 274.306 85.1365C273.858 85.1365 273.452 85.077 273.088 84.958C272.724 84.839 272.409 84.671 272.143 84.454C271.877 84.237 271.66 83.9745 271.492 83.6665C271.331 83.3585 271.226 83.0155 271.177 82.6375H272.227C272.325 83.1625 272.552 83.5615 272.909 83.8345C273.266 84.1005 273.739 84.2335 274.327 84.2335C274.894 84.2335 275.331 84.1145 275.639 83.8765C275.947 83.6385 276.101 83.3305 276.101 82.9525C276.101 82.7565 276.059 82.585 275.975 82.438C275.898 82.291 275.786 82.165 275.639 82.06C275.492 81.955 275.317 81.8675 275.114 81.7975C274.918 81.7275 274.701 81.6645 274.463 81.6085L273.518 81.409C273.259 81.353 273.004 81.2725 272.752 81.1675C272.5 81.0625 272.276 80.926 272.08 80.758C271.884 80.59 271.726 80.3905 271.607 80.1595C271.488 79.9215 271.429 79.645 271.429 79.33ZM280.787 79.2565C281.137 79.2565 281.449 79.316 281.722 79.435C281.995 79.547 282.229 79.6975 282.425 79.8865C282.621 80.0755 282.775 80.289 282.887 80.527C283.006 80.765 283.083 81.003 283.118 81.241H282.152C282.082 80.905 281.921 80.632 281.669 80.422C281.424 80.205 281.109 80.0965 280.724 80.0965C280.5 80.0965 280.29 80.1385 280.094 80.2225C279.905 80.3065 279.737 80.436 279.59 80.611C279.45 80.779 279.338 80.9925 279.254 81.2515C279.17 81.5105 279.128 81.8185 279.128 82.1755C279.128 82.5325 279.17 82.844 279.254 83.11C279.338 83.376 279.454 83.5965 279.601 83.7715C279.748 83.9465 279.916 84.0795 280.105 84.1705C280.301 84.2545 280.507 84.2965 280.724 84.2965C280.934 84.2965 281.12 84.265 281.281 84.202C281.449 84.139 281.592 84.055 281.711 83.95C281.837 83.845 281.939 83.726 282.016 83.593C282.1 83.453 282.159 83.3095 282.194 83.1625H283.181C283.132 83.4285 283.038 83.6805 282.898 83.9185C282.758 84.1565 282.579 84.3665 282.362 84.5485C282.152 84.7305 281.904 84.874 281.617 84.979C281.337 85.084 281.029 85.1365 280.693 85.1365C280.28 85.1365 279.912 85.063 279.59 84.916C279.268 84.769 278.995 84.566 278.771 84.307C278.547 84.048 278.376 83.74 278.257 83.383C278.145 83.019 278.089 82.62 278.089 82.186C278.089 81.766 278.148 81.3775 278.267 81.0205C278.393 80.6635 278.572 80.3555 278.803 80.0965C279.034 79.8305 279.314 79.624 279.643 79.477C279.979 79.33 280.36 79.2565 280.787 79.2565ZM285.216 80.2015C285.377 79.9355 285.601 79.7115 285.888 79.5295C286.182 79.3475 286.567 79.2565 287.043 79.2565C287.386 79.2565 287.673 79.309 287.904 79.414C288.142 79.519 288.334 79.6695 288.481 79.8655C288.628 80.0545 288.733 80.282 288.796 80.548C288.866 80.814 288.901 81.108 288.901 81.43V85H287.946V81.7135C287.946 81.4965 287.932 81.29 287.904 81.094C287.876 80.898 287.82 80.7265 287.736 80.5795C287.652 80.4255 287.526 80.3065 287.358 80.2225C287.197 80.1315 286.98 80.086 286.707 80.086C286.245 80.086 285.881 80.2435 285.615 80.5585C285.349 80.8665 285.216 81.325 285.216 81.934V85H284.26V77.3875H285.216V80.2015ZM292.683 85.1365C292.228 85.1365 291.829 85.063 291.486 84.916C291.15 84.762 290.866 84.552 290.635 84.286C290.404 84.02 290.229 83.7085 290.11 83.3515C289.998 82.9945 289.942 82.606 289.942 82.186C289.942 81.738 290.009 81.3355 290.142 80.9785C290.282 80.6145 290.471 80.3065 290.709 80.0545C290.954 79.7955 291.241 79.5995 291.57 79.4665C291.899 79.3265 292.259 79.2565 292.651 79.2565C293.085 79.2565 293.47 79.3405 293.806 79.5085C294.149 79.6765 294.433 79.9075 294.657 80.2015C294.881 80.4955 295.042 80.8385 295.14 81.2305C295.245 81.6225 295.283 82.0425 295.255 82.4905H290.982C290.982 82.7705 291.024 83.0225 291.108 83.2465C291.199 83.4705 291.321 83.6595 291.475 83.8135C291.629 83.9675 291.808 84.0865 292.011 84.1705C292.214 84.2545 292.431 84.2965 292.662 84.2965C293.103 84.2965 293.439 84.2125 293.67 84.0445C293.901 83.8695 294.076 83.642 294.195 83.362H295.182C295.119 83.607 295.017 83.838 294.877 84.055C294.737 84.265 294.562 84.4505 294.352 84.6115C294.149 84.7725 293.908 84.902 293.628 85C293.348 85.091 293.033 85.1365 292.683 85.1365ZM292.651 80.0755C292.168 80.0755 291.776 80.2155 291.475 80.4955C291.174 80.7685 291.013 81.1605 290.992 81.6715H294.247C294.24 81.4755 294.202 81.283 294.132 81.094C294.062 80.898 293.96 80.7265 293.827 80.5795C293.694 80.4255 293.53 80.303 293.334 80.212C293.138 80.121 292.91 80.0755 292.651 80.0755ZM300.275 77.3875H301.23V85H300.275V84.1495C300.1 84.4505 299.862 84.692 299.561 84.874C299.26 85.049 298.882 85.1365 298.427 85.1365C298.091 85.1365 297.779 85.0735 297.492 84.9475C297.205 84.8145 296.953 84.622 296.736 84.37C296.519 84.118 296.348 83.81 296.222 83.446C296.103 83.082 296.043 82.6655 296.043 82.1965C296.043 81.7345 296.103 81.3215 296.222 80.9575C296.348 80.5935 296.519 80.2855 296.736 80.0335C296.953 79.7815 297.205 79.589 297.492 79.456C297.779 79.323 298.091 79.2565 298.427 79.2565C298.882 79.2565 299.26 79.3475 299.561 79.5295C299.862 79.7045 300.1 79.9425 300.275 80.2435V77.3875ZM300.317 82.1965C300.317 81.8255 300.271 81.507 300.18 81.241C300.089 80.968 299.967 80.7475 299.813 80.5795C299.659 80.4045 299.48 80.2785 299.277 80.2015C299.081 80.1175 298.878 80.0755 298.668 80.0755C298.157 80.0755 297.765 80.261 297.492 80.632C297.219 80.996 297.083 81.5175 297.083 82.1965C297.083 82.8755 297.219 83.4005 297.492 83.7715C297.765 84.1355 298.157 84.3175 298.668 84.3175C298.878 84.3175 299.081 84.279 299.277 84.202C299.48 84.118 299.659 83.992 299.813 83.824C299.967 83.649 300.089 83.4285 300.18 83.1625C300.271 82.8895 300.317 82.5675 300.317 82.1965ZM306.234 84.1915C306.073 84.4575 305.853 84.6815 305.573 84.8635C305.3 85.0455 304.929 85.1365 304.46 85.1365C304.131 85.1365 303.851 85.084 303.62 84.979C303.396 84.874 303.21 84.727 303.063 84.538C302.923 84.342 302.818 84.111 302.748 83.845C302.685 83.579 302.654 83.285 302.654 82.963V79.351H303.609V82.6795C303.609 82.8965 303.62 83.103 303.641 83.299C303.669 83.495 303.725 83.67 303.809 83.824C303.893 83.971 304.012 84.09 304.166 84.181C304.327 84.265 304.537 84.307 304.796 84.307C305.251 84.307 305.604 84.153 305.856 83.845C306.108 83.53 306.234 83.068 306.234 82.459V79.351H307.19V85H306.234V84.1915ZM309.661 85H308.706V77.3875H309.661V85ZM313.529 85.1365C313.074 85.1365 312.675 85.063 312.332 84.916C311.996 84.762 311.712 84.552 311.481 84.286C311.25 84.02 311.075 83.7085 310.956 83.3515C310.844 82.9945 310.788 82.606 310.788 82.186C310.788 81.738 310.855 81.3355 310.988 80.9785C311.128 80.6145 311.317 80.3065 311.555 80.0545C311.8 79.7955 312.087 79.5995 312.416 79.4665C312.745 79.3265 313.105 79.2565 313.497 79.2565C313.931 79.2565 314.316 79.3405 314.652 79.5085C314.995 79.6765 315.279 79.9075 315.503 80.2015C315.727 80.4955 315.888 80.8385 315.986 81.2305C316.091 81.6225 316.129 82.0425 316.101 82.4905H311.828C311.828 82.7705 311.87 83.0225 311.954 83.2465C312.045 83.4705 312.167 83.6595 312.321 83.8135C312.475 83.9675 312.654 84.0865 312.857 84.1705C313.06 84.2545 313.277 84.2965 313.508 84.2965C313.949 84.2965 314.285 84.2125 314.516 84.0445C314.747 83.8695 314.922 83.642 315.041 83.362H316.028C315.965 83.607 315.863 83.838 315.723 84.055C315.583 84.265 315.408 84.4505 315.198 84.6115C314.995 84.7725 314.754 84.902 314.474 85C314.194 85.091 313.879 85.1365 313.529 85.1365ZM313.497 80.0755C313.014 80.0755 312.622 80.2155 312.321 80.4955C312.02 80.7685 311.859 81.1605 311.838 81.6715H315.093C315.086 81.4755 315.048 81.283 314.978 81.094C314.908 80.898 314.806 80.7265 314.673 80.5795C314.54 80.4255 314.376 80.303 314.18 80.212C313.984 80.121 313.756 80.0755 313.497 80.0755ZM321.121 77.3875H322.076V85H321.121V84.1495C320.946 84.4505 320.708 84.692 320.407 84.874C320.106 85.049 319.728 85.1365 319.273 85.1365C318.937 85.1365 318.625 85.0735 318.338 84.9475C318.051 84.8145 317.799 84.622 317.582 84.37C317.365 84.118 317.194 83.81 317.068 83.446C316.949 83.082 316.889 82.6655 316.889 82.1965C316.889 81.7345 316.949 81.3215 317.068 80.9575C317.194 80.5935 317.365 80.2855 317.582 80.0335C317.799 79.7815 318.051 79.589 318.338 79.456C318.625 79.323 318.937 79.2565 319.273 79.2565C319.728 79.2565 320.106 79.3475 320.407 79.5295C320.708 79.7045 320.946 79.9425 321.121 80.2435V77.3875ZM321.163 82.1965C321.163 81.8255 321.117 81.507 321.026 81.241C320.935 80.968 320.813 80.7475 320.659 80.5795C320.505 80.4045 320.326 80.2785 320.123 80.2015C319.927 80.1175 319.724 80.0755 319.514 80.0755C319.003 80.0755 318.611 80.261 318.338 80.632C318.065 80.996 317.929 81.5175 317.929 82.1965C317.929 82.8755 318.065 83.4005 318.338 83.7715C318.611 84.1355 319.003 84.3175 319.514 84.3175C319.724 84.3175 319.927 84.279 320.123 84.202C320.326 84.118 320.505 83.992 320.659 83.824C320.813 83.649 320.935 83.4285 321.026 83.1625C321.117 82.8895 321.163 82.5675 321.163 82.1965Z" fill="#808084"/>
<path d="M210.287 132.387H207.903V140H208.974V136.986H210.287C212.145 136.986 213.447 136.577 213.447 134.687C213.447 132.807 212.145 132.387 210.287 132.387ZM208.974 133.29H210.371C211.484 133.29 212.355 133.448 212.355 134.687C212.355 135.936 211.484 136.052 210.371 136.052H208.974V133.29ZM214.805 137.49H219.152C219.278 135.705 218.239 134.256 216.517 134.256C214.973 134.256 213.776 135.401 213.776 137.186C213.776 138.855 214.763 140.137 216.548 140.137C217.924 140.137 218.816 139.338 219.079 138.362H218.092C217.85 138.918 217.388 139.296 216.548 139.296C215.708 139.296 214.847 138.708 214.805 137.49ZM214.816 136.671C214.9 135.537 215.666 135.075 216.517 135.075C217.525 135.075 218.123 135.873 218.144 136.671H214.816ZM221.221 135.201V134.351H220.266V140H221.221V136.934C221.221 135.726 221.788 135.086 222.712 135.086C223.804 135.086 223.951 135.842 223.951 136.713V140H224.907V136.43C224.907 135.138 224.413 134.256 223.048 134.256C222.093 134.256 221.547 134.666 221.221 135.201ZM230.211 132.387V135.243C229.864 134.645 229.266 134.256 228.363 134.256C227.071 134.256 225.948 135.338 225.948 137.196C225.948 139.065 227.071 140.137 228.363 140.137C229.266 140.137 229.864 139.748 230.211 139.149V140H231.166V132.387H230.211ZM228.604 135.075C229.455 135.075 230.253 135.705 230.253 137.196C230.253 138.688 229.455 139.317 228.604 139.317C227.628 139.317 226.987 138.54 226.987 137.196C226.987 135.852 227.628 135.075 228.604 135.075ZM233.628 132.387H232.673V133.542H233.628V132.387ZM233.628 134.351H232.673V140H233.628V134.351ZM236.1 135.201V134.351H235.144V140H236.1V136.934C236.1 135.726 236.667 135.086 237.591 135.086C238.683 135.086 238.83 135.842 238.83 136.713V140H239.785V136.43C239.785 135.138 239.292 134.256 237.927 134.256C236.971 134.256 236.425 134.666 236.1 135.201ZM245.015 134.351V135.243C244.669 134.645 244.123 134.256 243.22 134.256C241.97 134.256 240.826 135.275 240.826 137.081C240.826 138.897 241.97 139.905 243.22 139.905C244.123 139.905 244.669 139.527 245.015 138.929V139.464C245.015 140.231 244.858 140.494 244.648 140.714C244.396 140.987 244.007 141.134 243.493 141.134C242.611 141.134 242.306 140.746 242.18 140.242H241.162C241.34 141.386 242.201 141.974 243.482 141.974C244.322 141.974 245.026 141.701 245.435 141.229C245.761 140.872 245.971 140.399 245.971 139.244V134.351H245.015ZM243.461 135.075C244.312 135.075 245.057 135.653 245.057 137.081C245.057 138.519 244.312 139.097 243.461 139.097C242.527 139.097 241.865 138.372 241.865 137.081C241.865 135.8 242.527 135.075 243.461 135.075ZM250.118 132.387V140H251.189V136.545H254.843V135.621H251.189V133.311H255.064V132.387H250.118ZM256.487 137.49H260.834C260.96 135.705 259.921 134.256 258.199 134.256C256.655 134.256 255.458 135.401 255.458 137.186C255.458 138.855 256.445 140.137 258.23 140.137C259.606 140.137 260.498 139.338 260.761 138.362H259.774C259.532 138.918 259.07 139.296 258.23 139.296C257.39 139.296 256.529 138.708 256.487 137.49ZM256.498 136.671C256.582 135.537 257.348 135.075 258.199 135.075C259.207 135.075 259.805 135.873 259.826 136.671H256.498ZM262.64 137.49H266.987C267.113 135.705 266.073 134.256 264.351 134.256C262.808 134.256 261.611 135.401 261.611 137.186C261.611 138.855 262.598 140.137 264.383 140.137C265.758 140.137 266.651 139.338 266.913 138.362H265.926C265.685 138.918 265.223 139.296 264.383 139.296C263.543 139.296 262.682 138.708 262.64 137.49ZM262.65 136.671C262.734 135.537 263.501 135.075 264.351 135.075C265.359 135.075 265.958 135.873 265.979 136.671H262.65ZM270.13 137.91C270.13 139.16 271.106 140.137 272.66 140.137C273.731 140.137 274.603 139.706 275.254 139.013L276.178 140H277.553L275.852 138.194C276.241 137.511 276.472 136.703 276.535 135.873H275.548C275.506 136.493 275.369 137.028 275.18 137.49L273.637 135.852C274.571 135.474 275.212 134.834 275.212 133.878C275.212 132.66 274.183 132.24 273.259 132.24C272.072 132.24 271.211 132.87 271.211 133.857C271.211 134.456 271.547 135.002 272.051 135.579C270.907 135.968 270.13 136.745 270.13 137.91ZM273.049 135.222C272.639 134.802 272.23 134.267 272.23 133.784C272.23 133.269 272.744 133.038 273.28 133.038C273.836 133.038 274.298 133.269 274.298 133.889C274.298 134.498 273.794 134.991 273.07 135.254L273.049 135.222ZM274.645 138.372C274.13 138.981 273.437 139.307 272.66 139.307C271.862 139.307 271.148 138.75 271.148 137.868C271.148 137.039 271.705 136.514 272.608 136.188L274.645 138.372ZM282.535 132.387L279.71 140H280.802L281.39 138.351H284.887L285.485 140H286.64L283.774 132.387H282.535ZM281.716 137.438L283.123 133.469L284.551 137.438H281.716ZM291.25 134.351V135.243C290.904 134.645 290.358 134.256 289.455 134.256C288.205 134.256 287.061 135.275 287.061 137.081C287.061 138.897 288.205 139.905 289.455 139.905C290.358 139.905 290.904 139.527 291.25 138.929V139.464C291.25 140.231 291.093 140.494 290.883 140.714C290.631 140.987 290.242 141.134 289.728 141.134C288.846 141.134 288.541 140.746 288.415 140.242H287.397C287.575 141.386 288.436 141.974 289.717 141.974C290.557 141.974 291.261 141.701 291.67 141.229C291.996 140.872 292.206 140.399 292.206 139.244V134.351H291.25ZM289.696 135.075C290.547 135.075 291.292 135.653 291.292 137.081C291.292 138.519 290.547 139.097 289.696 139.097C288.762 139.097 288.1 138.372 288.1 137.081C288.1 135.8 288.762 135.075 289.696 135.075ZM296.528 135.348V134.33C296.423 134.319 296.339 134.319 296.245 134.319C295.51 134.34 294.932 134.698 294.649 135.338V134.351H293.714V140H294.67V137.039C294.67 135.8 295.111 135.306 295.993 135.306C296.15 135.306 296.329 135.327 296.528 135.348ZM297.985 137.49H302.332C302.458 135.705 301.418 134.256 299.696 134.256C298.153 134.256 296.956 135.401 296.956 137.186C296.956 138.855 297.943 140.137 299.728 140.137C301.103 140.137 301.996 139.338 302.258 138.362H301.271C301.03 138.918 300.568 139.296 299.728 139.296C298.888 139.296 298.027 138.708 297.985 137.49ZM297.995 136.671C298.079 135.537 298.846 135.075 299.696 135.075C300.704 135.075 301.303 135.873 301.324 136.671H297.995ZM304.137 137.49H308.484C308.61 135.705 307.571 134.256 305.849 134.256C304.305 134.256 303.108 135.401 303.108 137.186C303.108 138.855 304.095 140.137 305.88 140.137C307.256 140.137 308.148 139.338 308.411 138.362H307.424C307.182 138.918 306.72 139.296 305.88 139.296C305.04 139.296 304.179 138.708 304.137 137.49ZM304.148 136.671C304.232 135.537 304.998 135.075 305.849 135.075C306.857 135.075 307.455 135.873 307.476 136.671H304.148ZM310.553 140V136.934C310.553 135.726 311.099 135.086 311.918 135.086C312.958 135.086 313.126 135.842 313.126 136.713V140H314.081V136.934C314.081 135.726 314.627 135.086 315.446 135.086C316.486 135.086 316.654 135.842 316.654 136.713V140H317.609V136.43C317.609 135.138 317.095 134.256 315.782 134.256C314.995 134.256 314.333 134.561 313.882 135.254C313.63 134.634 313.115 134.256 312.254 134.256C311.404 134.256 310.879 134.666 310.553 135.201V134.351H309.598V140H310.553ZM319.682 137.49H324.029C324.155 135.705 323.116 134.256 321.394 134.256C319.85 134.256 318.653 135.401 318.653 137.186C318.653 138.855 319.64 140.137 321.425 140.137C322.801 140.137 323.693 139.338 323.956 138.362H322.969C322.727 138.918 322.265 139.296 321.425 139.296C320.585 139.296 319.724 138.708 319.682 137.49ZM319.693 136.671C319.777 135.537 320.543 135.075 321.394 135.075C322.402 135.075 323 135.873 323.021 136.671H319.693ZM326.098 135.201V134.351H325.143V140H326.098V136.934C326.098 135.726 326.665 135.086 327.589 135.086C328.681 135.086 328.828 135.842 328.828 136.713V140H329.784V136.43C329.784 135.138 329.29 134.256 327.925 134.256C326.97 134.256 326.424 134.666 326.098 135.201ZM331.486 132.933V134.351H330.594V135.117H331.486V138.582C331.486 139.758 331.738 140 332.82 140H333.513V139.202H333.03C332.484 139.202 332.442 139.055 332.442 138.467V135.117H333.513V134.351H332.442V132.933H331.486Z" fill="#808084"/>
</svg>
